<svg width="1050" height="156" viewBox="0 0 1050 156" fill="none" xmlns="http://www.w3.org/2000/svg">
<path d="M118.196 125V31.1818H185.811V51.7045H143.666V67.8295H182.33V88.3523H143.666V104.477H185.628V125H118.196ZM255.467 60.5C255.223 57.446 254.077 55.0639 252.031 53.3537C250.016 51.6435 246.946 50.7883 242.824 50.7883C240.197 50.7883 238.044 51.109 236.364 51.7503C234.715 52.3611 233.494 53.201 232.7 54.2699C231.906 55.3388 231.493 56.5604 231.463 57.9347C231.402 59.0646 231.6 60.0877 232.058 61.0039C232.547 61.8896 233.31 62.6989 234.349 63.4318C235.387 64.1342 236.716 64.7756 238.334 65.3558C239.953 65.9361 241.877 66.4553 244.106 66.9134L251.802 68.5625C256.994 69.6619 261.438 71.1126 265.133 72.9144C268.828 74.7163 271.852 76.8388 274.203 79.282C276.555 81.6946 278.28 84.4126 279.38 87.4361C280.51 90.4595 281.09 93.7578 281.12 97.331C281.09 103.5 279.548 108.722 276.494 112.998C273.44 117.273 269.072 120.526 263.392 122.755C257.742 124.985 250.947 126.099 243.007 126.099C234.853 126.099 227.737 124.893 221.66 122.48C215.613 120.068 210.91 116.357 207.55 111.349C204.221 106.31 202.542 99.8658 202.511 92.017H226.699C226.851 94.8878 227.569 97.3004 228.852 99.255C230.134 101.21 231.936 102.691 234.257 103.699C236.609 104.706 239.403 105.21 242.64 105.21C245.358 105.21 247.634 104.874 249.466 104.202C251.298 103.531 252.688 102.599 253.635 101.408C254.581 100.217 255.07 98.858 255.101 97.331C255.07 95.8956 254.597 94.6435 253.68 93.5746C252.795 92.4751 251.329 91.4979 249.283 90.6428C247.237 89.7571 244.473 88.9325 240.991 88.169L231.646 86.1534C223.339 84.3516 216.788 81.3434 211.994 77.1289C207.229 72.8839 204.863 67.0966 204.893 59.767C204.863 53.8118 206.451 48.6048 209.657 44.146C212.895 39.6566 217.369 36.1598 223.08 33.6555C228.821 31.1513 235.402 29.8991 242.824 29.8991C250.397 29.8991 256.948 31.1665 262.476 33.7013C268.004 36.2361 272.264 39.8093 275.257 44.4208C278.28 49.0018 279.807 54.3615 279.838 60.5H255.467ZM322.729 31.1818V125H297.259V31.1818H322.729ZM402.177 62.1491C401.78 60.5305 401.154 59.1104 400.299 57.8888C399.444 56.6367 398.375 55.5831 397.092 54.728C395.84 53.8423 394.374 53.1857 392.694 52.7582C391.045 52.3001 389.228 52.071 387.243 52.071C382.968 52.071 379.318 53.0941 376.295 55.1403C373.302 57.1864 371.011 60.1335 369.423 63.9815C367.866 67.8295 367.087 72.4716 367.087 77.9077C367.087 83.4048 367.835 88.108 369.332 92.017C370.828 95.9261 373.057 98.919 376.02 100.996C378.982 103.072 382.662 104.111 387.06 104.111C390.938 104.111 394.16 103.546 396.726 102.416C399.322 101.286 401.261 99.6825 402.544 97.6058C403.826 95.5291 404.468 93.0859 404.468 90.2763L408.865 90.7344H387.426V72.5938H429.022V85.6037C429.022 94.1548 427.204 101.469 423.57 107.547C419.966 113.593 414.988 118.235 408.636 121.473C402.314 124.679 395.061 126.283 386.877 126.283C377.745 126.283 369.729 124.343 362.827 120.465C355.925 116.586 350.534 111.059 346.656 103.882C342.808 96.7049 340.884 88.169 340.884 78.2741C340.884 70.517 342.06 63.6456 344.411 57.6598C346.793 51.674 350.091 46.6197 354.306 42.4968C358.52 38.3434 363.392 35.2131 368.919 33.1058C374.447 30.968 380.372 29.8991 386.693 29.8991C392.252 29.8991 397.413 30.6932 402.177 32.2812C406.972 33.8388 411.202 36.0682 414.866 38.9695C418.562 41.8402 421.539 45.2454 423.799 49.185C426.059 53.1246 427.433 57.446 427.922 62.1491H402.177ZM528.522 31.1818V125H507.267L473.368 75.7088H472.818V125H447.348V31.1818H468.97L502.319 80.2898H503.052V31.1818H528.522ZM660.344 31.1818V125H639.089L605.189 75.7088H604.64V125H579.17V31.1818H600.792L634.141 80.2898H634.874V31.1818H660.344ZM678.842 125V31.1818H746.457V51.7045H704.312V67.8295H742.976V88.3523H704.312V104.477H746.274V125H678.842ZM792.842 31.1818L808.234 58.4844H808.967L824.542 31.1818H852.944L824.909 78.0909L854.044 125H824.909L808.967 97.1477H808.234L792.292 125H763.34L792.109 78.0909L764.257 31.1818H792.842ZM925.898 31.1818H951.368V91.2841C951.368 98.4304 949.658 104.615 946.238 109.837C942.848 115.029 938.114 119.045 932.037 121.885C925.959 124.695 918.905 126.099 910.873 126.099C902.78 126.099 895.694 124.695 889.617 121.885C883.54 119.045 878.806 115.029 875.416 109.837C872.057 104.615 870.377 98.4304 870.377 91.2841V31.1818H895.847V89.0852C895.847 91.9865 896.488 94.5824 897.771 96.8729C899.054 99.1328 900.825 100.904 903.085 102.187C905.376 103.469 907.971 104.111 910.873 104.111C913.805 104.111 916.4 103.469 918.66 102.187C920.92 100.904 922.692 99.1328 923.974 96.8729C925.257 94.5824 925.898 91.9865 925.898 89.0852V31.1818ZM1020.5 60.5C1020.25 57.446 1019.11 55.0639 1017.06 53.3537C1015.05 51.6435 1011.98 50.7883 1007.85 50.7883C1005.23 50.7883 1003.07 51.109 1001.39 51.7503C999.746 52.3611 998.524 53.201 997.73 54.2699C996.936 55.3388 996.524 56.5604 996.493 57.9347C996.432 59.0646 996.631 60.0877 997.089 61.0039C997.577 61.8896 998.341 62.6989 999.379 63.4318C1000.42 64.1342 1001.75 64.7756 1003.36 65.3558C1004.98 65.9361 1006.91 66.4553 1009.14 66.9134L1016.83 68.5625C1022.02 69.6619 1026.47 71.1126 1030.16 72.9144C1033.86 74.7163 1036.88 76.8388 1039.23 79.282C1041.59 81.6946 1043.31 84.4126 1044.41 87.4361C1045.54 90.4595 1046.12 93.7578 1046.15 97.331C1046.12 103.5 1044.58 108.722 1041.52 112.998C1038.47 117.273 1034.1 120.526 1028.42 122.755C1022.77 124.985 1015.98 126.099 1008.04 126.099C999.883 126.099 992.767 124.893 986.69 122.48C980.643 120.068 975.94 116.357 972.581 111.349C969.252 106.31 967.572 99.8658 967.542 92.017H991.729C991.882 94.8878 992.599 97.3004 993.882 99.255C995.165 101.21 996.967 102.691 999.288 103.699C1001.64 104.706 1004.43 105.21 1007.67 105.21C1010.39 105.21 1012.66 104.874 1014.5 104.202C1016.33 103.531 1017.72 102.599 1018.67 101.408C1019.61 100.217 1020.1 98.858 1020.13 97.331C1020.1 95.8956 1019.63 94.6435 1018.71 93.5746C1017.83 92.4751 1016.36 91.4979 1014.31 90.6428C1012.27 89.7571 1009.5 88.9325 1006.02 88.169L996.676 86.1534C988.37 84.3516 981.819 81.3434 977.024 77.1289C972.26 72.8839 969.893 67.0966 969.924 59.767C969.893 53.8118 971.481 48.6048 974.688 44.146C977.925 39.6566 982.399 36.1598 988.11 33.6555C993.852 31.1513 1000.43 29.8991 1007.85 29.8991C1015.43 29.8991 1021.98 31.1665 1027.51 33.7013C1033.03 36.2361 1037.29 39.8093 1040.29 44.4208C1043.31 49.0018 1044.84 54.3615 1044.87 60.5H1020.5Z" fill="white"/>
<path fill-rule="evenodd" clip-rule="evenodd" d="M47.5 26H0V78H37.4364C47.5474 78 56.2826 79.9678 63.6418 83.9034C71.0331 87.807 76.7286 93.4385 80.7282 100.798C82.4433 103.915 83.7936 107.296 84.7791 110.94C91.1793 102.846 95 92.6194 95 81.5V73.5C95 47.2665 73.7335 26 47.5 26ZM63.5596 126.217C63.6132 125.669 63.6418 125.126 63.6418 124.589C63.6418 117.741 60.814 113.564 59.0359 111.43C57.212 107.59 52.6029 104.573 49.0513 103.006C45.5316 101.438 41.212 100.654 36.0925 100.654H0V129H47.5C53.1364 129 58.5434 128.018 63.5596 126.217Z" fill="white"/>
</svg>
